REM MD5 0014a427188c189cc427c76e6bee0667
FILE "PSone - Wherever, Whenever, Forever. (USA).bin" BINARY
  TRACK 01 MODE2/2352
    INDEX 01 00:00:00
  TRACK 02 AUDIO
    INDEX 00 45:33:31
    INDEX 01 45:35:31
  TRACK 03 AUDIO
    INDEX 00 47:49:32
    INDEX 01 47:51:32
REM LEADOUT 47:57:28
